<?xml version="1.0" encoding="utf-8"?><svg xmlns="http://www.w3.org/2000/svg" xmlns:xlink="http://www.w3.org/1999/xlink"><symbol viewBox="0 0 510.909 510.909" id="icon--air-conditioner" xmlns="http://www.w3.org/2000/svg"><path d="M475 100.486H121.478c-4.142 0-7.5 3.357-7.5 7.5s3.358 7.5 7.5 7.5H475c11.53 0 20.91 9.38 20.91 20.91v159.691c0 11.53-9.38 20.91-20.91 20.91h-17.959V268.13a7.5 7.5 0 00-7.5-7.5H61.368a7.5 7.5 0 00-7.5 7.5v48.867H35.91c-11.53 0-20.91-9.38-20.91-20.91V136.396c0-11.53 9.38-20.91 20.91-20.91h55.568c4.142 0 7.5-3.357 7.5-7.5s-3.358-7.5-7.5-7.5H35.91c-19.801 0-35.91 16.109-35.91 35.91v159.691c0 19.801 16.109 35.91 35.91 35.91h78.071a7.5 7.5 0 000-15H68.868v-13.184h298.061a7.5 7.5 0 007.5-7.5 7.5 7.5 0 00-7.5-7.5H68.868v-13.184h373.173v13.184h-45.112a7.5 7.5 0 00-7.5 7.5 7.5 7.5 0 007.5 7.5h45.112v13.184H143.98a7.5 7.5 0 000 15H475c19.801 0 35.91-16.109 35.91-35.91V136.396c-.001-19.8-16.11-35.91-35.91-35.91z"/><path d="M449.541 161.467a7.5 7.5 0 007.5-7.5 7.5 7.5 0 00-7.5-7.5H427.36a7.5 7.5 0 00-7.5 7.5 7.5 7.5 0 007.5 7.5h22.181zm-56.402 0a7.5 7.5 0 007.5-7.5 7.5 7.5 0 00-7.5-7.5H251.183a7.5 7.5 0 00-7.5 7.5 7.5 7.5 0 007.5 7.5h141.956zM141.082 352.064a7.5 7.5 0 00-7.5 7.5c0 .223-.241 22.457-21.047 37.245a7.5 7.5 0 004.352 13.614 7.467 7.467 0 004.339-1.388c27.046-19.224 27.357-48.246 27.357-49.472a7.5 7.5 0 00-7.501-7.499zm53.701 0a7.5 7.5 0 00-7.5 7.5v43.358a7.5 7.5 0 007.5 7.5 7.5 7.5 0 007.5-7.5v-43.358a7.5 7.5 0 00-7.5-7.5zm62.781 0a7.5 7.5 0 00-7.5 7.5v43.358a7.5 7.5 0 007.5 7.5 7.5 7.5 0 007.5-7.5v-43.358a7.5 7.5 0 00-7.5-7.5zm140.811 44.745c-20.526-14.589-21.036-36.281-21.047-37.279a7.5 7.5 0 00-7.5-7.466 7.5 7.5 0 00-7.5 7.5c0 1.226.311 30.248 27.357 49.472a7.498 7.498 0 0010.459-1.768 7.502 7.502 0 00-1.769-10.459zm-82.249-44.745a7.5 7.5 0 00-7.5 7.5v43.358a7.5 7.5 0 007.5 7.5 7.5 7.5 0 007.5-7.5v-43.358a7.5 7.5 0 00-7.5-7.5z"/></symbol><symbol viewBox="0 0 512 512" id="icon--bathtub" xmlns="http://www.w3.org/2000/svg"><path d="M486.4 273.067h-8.533v-179.2c0-42.667-34.133-76.8-76.8-76.8-37.77 0-64.935 28.006-67.974 69.041-19.829 3.748-34.426 20.826-34.426 41.892 0 5.12 3.413 8.533 8.533 8.533h68.267c5.12 0 8.533-3.413 8.533-8.533 0-20.833-14.274-37.769-33.767-41.767 2.55-27.116 18.836-52.1 50.834-52.1 33.28 0 59.733 26.453 59.733 59.733v179.2H203.975c-3.86-19.681-20.878-34.133-41.841-34.133-8.533-10.24-20.48-17.067-34.133-17.067-16.213 0-30.72 9.387-37.547 23.04-6.827-3.413-14.507-5.973-22.187-5.973-20.963 0-37.981 14.452-41.841 34.133H25.6c-14.507 0-25.6 11.093-25.6 25.6 0 14.507 11.093 25.6 25.6 25.6h10.255l23.025 91.307c6.827 26.453 30.72 45.227 58.027 45.227h6.827l-11.093 22.187c-2.56 4.267-.853 9.387 3.413 11.093.853.853 2.56.853 3.413.853 3.413 0 5.973-1.707 7.68-4.267L142.08 460.8h236.8l14.507 29.013c1.707 3.413 4.267 5.12 7.68 5.12 1.707 0 2.56 0 3.413-1.707 3.413-1.707 5.12-6.827 3.413-11.093l-10.689-21.379c26.419-.938 49.266-19.39 55.916-44.328l23.24-92.16h10.04c14.507 0 25.6-11.093 25.6-25.6 0-14.506-11.093-25.599-25.6-25.599zm-120.32-153.6h-48.64c3.413-10.24 13.653-17.067 24.747-17.067s20.48 6.827 23.893 17.067zM68.267 256c7.68 0 14.507 3.413 20.48 9.387 1.707 2.56 5.12 3.413 8.533 2.56s5.12-3.413 5.973-6.827c2.56-12.8 12.8-22.187 25.6-22.187 9.387 0 17.92 4.267 22.187 12.8 1.707 3.413 5.973 5.12 9.387 4.267h2.56c11.093 0 20.48 6.827 23.893 17.067H44.373C47.787 262.827 57.173 256 68.267 256zM437.76 411.307c-5.12 18.773-22.187 32.427-41.813 32.427H117.76c-19.627 0-36.693-13.653-41.813-32.427l-22.187-87.04h404.48l-20.48 87.04zM486.4 307.2H25.6c-5.12 0-8.533-3.413-8.533-8.533s3.413-8.533 8.533-8.533h460.8c5.12 0 8.533 3.413 8.533 8.533s-3.413 8.533-8.533 8.533z"/><path d="M307.2 174.933c5.12 0 8.533-3.413 8.533-8.533v-4.267c0-5.12-3.413-8.533-8.533-8.533s-8.533 3.413-8.533 8.533v4.267c0 5.12 3.413 8.533 8.533 8.533zm0 39.254c5.12 0 8.533-4.267 8.533-8.533v-9.387c0-5.12-3.413-8.533-8.533-8.533s-8.533 3.413-8.533 8.533v9.387c0 5.119 3.413 8.533 8.533 8.533zm0 33.28c5.12 0 8.533-3.413 8.533-8.533v-4.267c0-5.12-3.413-8.533-8.533-8.533s-8.533 3.413-8.533 8.533v4.267c0 5.119 3.413 8.533 8.533 8.533zm34.133-72.534c5.12 0 8.533-3.413 8.533-8.533v-4.267c0-5.12-3.413-8.533-8.533-8.533-5.12 0-8.533 3.413-8.533 8.533v4.267c0 5.12 3.413 8.533 8.533 8.533zm-8.533 30.72c0 5.12 3.413 8.533 8.533 8.533 5.12 0 8.533-4.267 8.533-8.533v-9.387c0-5.12-3.413-8.533-8.533-8.533-5.12 0-8.533 3.413-8.533 8.533v9.387zm0 33.28c0 5.12 3.413 8.533 8.533 8.533 5.12 0 8.533-3.413 8.533-8.533v-4.267c0-5.12-3.413-8.533-8.533-8.533-5.12 0-8.533 3.413-8.533 8.533v4.267zm42.667-64c5.12 0 8.533-3.413 8.533-8.533v-4.267c0-5.12-3.413-8.533-8.533-8.533s-8.533 3.413-8.533 8.533v4.267c-.001 5.12 3.413 8.533 8.533 8.533zm-8.534 30.72c0 5.12 3.413 8.533 8.533 8.533S384 209.92 384 205.653v-9.387c0-5.12-3.413-8.533-8.533-8.533s-8.533 3.413-8.533 8.533v9.387zm0 33.28c0 5.12 3.413 8.533 8.533 8.533s8.533-3.413 8.533-8.533v-4.267c0-5.12-3.413-8.533-8.533-8.533s-8.533 3.413-8.533 8.533v4.267z"/></symbol><symbol viewBox="0 0 411.595 411.595" id="icon--call" xmlns="http://www.w3.org/2000/svg"><path d="M284.395 215.803c-.8 1.2-.8 2.4-1.2 4-.4 5.2 3.6 10 8.8 10.4 5.2.4 10-3.6 10.4-8.8 0-1.2 0-2.4.4-4.4v-4.4c0-11.6-2-22.8-5.6-33.6-4.8-14-13.2-26.4-23.2-36.8-12.4-12.4-27.6-21.2-44.8-26-8-2-16.8-3.2-25.2-3.2-2.8 0-5.6 0-8.8.4l-8.4 1.2c-5.2.8-8.8 6-7.6 10.8.8 5.2 6 8.8 10.8 7.6 2.4-.4 4.4-.8 6.8-.8h1.2c2 0 4-.4 6-.4 22 0 42.4 8.8 56.8 23.6 14.4 14.4 23.2 34 23.6 56v4.4z"/><path d="M337.195 224.603c-.4 5.2 3.6 10 8.8 10.4 5.2.4 10-3.6 10.4-8.8.4-4.4.4-8.8.4-13.2 0-8.8-.8-17.2-2-25.6-5.2-32-20.8-60.8-42.8-82.8-25.2-25.2-58.8-41.6-96-44.4-4-.4-8.4-.4-12.4-.4-4.4 0-8.8 0-13.2.4-4.4.4-8.8.8-13.2 1.6-5.2.8-8.8 6-7.6 10.8.8 5.2 6 8.8 10.8 7.6 2.8-.4 5.2-.8 8-1.2 1.2 0 2.4-.4 3.6-.4 4-.4 8-.4 11.6-.4 13.6 0 26.4 2 38.8 5.6 21.6 6.4 40.8 18 56.4 33.6 12.8 12.8 23.2 28.4 30 45.2 6 15.2 9.6 32 9.6 49.6v4c-.8 3.2-1.2 5.6-1.2 8.4z"/><path d="M350.795 66.203c-38-38-90-61.2-147.6-61.2-6 0-12 .4-18 .8s-12 1.2-18 2.4c-5.2.8-8.8 6-7.6 10.8.8 5.2 6 8.8 10.8 7.6 2.8-.4 5.2-.8 8-1.2 2.8-.4 5.6-.8 8.4-.8 5.6-.4 10.8-.8 16.4-.8 52 0 99.2 21.2 133.6 55.2 34 34 55.2 81.2 55.2 133.6v8.8c0 2.4-.4 4.8-.4 7.6-.4 5.2 3.6 10 8.8 10.4 5.2.4 10-3.6 10.4-8.8.4-6 .8-12 .8-17.6 0-57.2-23.2-109.2-60.8-146.8zm46 242.4l-70.8-38c-23.6-12.8-24.4-4.4-49.2 22-6 6.4-17.2 23.2-30.4 20-27.6-6.8-79.2-47.2-96-65.6-8-8.8-42.4-50.8-42.8-64.4-.8-20.8 44.8-31.2 30-70.8l-31.6-70.8c-29.6-68-112.4 40.8-105.6 91.6 17.6 125.2 237.2 327.6 359.6 260.8 27.2-15.2 64-68.4 36.8-84.8z"/></symbol><symbol viewBox="0 0 512 512" id="icon--kitchen" xmlns="http://www.w3.org/2000/svg"><path d="M366.933 307.2H145.067a8.53 8.53 0 00-8.533 8.533v187.733a8.53 8.53 0 008.533 8.533h221.867a8.525 8.525 0 008.533-8.533V315.733a8.526 8.526 0 00-8.534-8.533zM358.4 494.933H153.6V324.267h204.8v170.666z"/><path d="M366.933 307.2H145.067a8.53 8.53 0 00-8.533 8.533v187.733a8.53 8.53 0 008.533 8.533h221.867a8.525 8.525 0 008.533-8.533V315.733a8.526 8.526 0 00-8.534-8.533zM358.4 494.933H153.6V324.267h204.8v170.666z"/><path d="M145.067 307.2H8.533A8.53 8.53 0 000 315.733v187.733A8.53 8.53 0 008.533 512h136.533a8.53 8.53 0 008.533-8.533V315.733a8.53 8.53 0 00-8.532-8.533zm-8.534 187.733H17.067V324.267h119.467v170.666zM503.467 307.2H366.933a8.525 8.525 0 00-8.533 8.533v187.733a8.525 8.525 0 008.533 8.533h136.533a8.525 8.525 0 008.533-8.533V315.733a8.523 8.523 0 00-8.532-8.533zm-8.534 187.733H375.467V324.267h119.467v170.666zM332.8 375.467H179.2a8.53 8.53 0 00-8.533 8.533v85.333a8.53 8.53 0 008.533 8.533h153.6a8.525 8.525 0 008.533-8.533V384a8.525 8.525 0 00-8.533-8.533zm-8.533 85.333H187.733v-68.267h136.533V460.8zm-59.734-119.467H281.6V358.4h-17.067zm-34.133 0h17.067V358.4H230.4zm-34.133 0h17.067V358.4h-17.067zm102.4 0h17.067V358.4h-17.067z"/><path d="M8.533 375.467h136.533v17.067H8.533zm51.2-34.134h34.133V358.4H59.733zm0 68.267h34.133v17.067H59.733zm307.2-34.133h136.533v17.067H366.933z"/><path d="M426.667 384h17.067v119.467h-17.067zm-8.534-42.667h34.133V358.4h-34.133zm-25.6 85.334H409.6v25.6h-17.067zm68.267 0h17.067v25.6H460.8zm-96.367-287.633L332.8 107.401V8.533A8.53 8.53 0 00324.267 0H187.733a8.536 8.536 0 00-8.533 8.533V107.4l-31.633 31.633a8.532 8.532 0 00-1.852 9.301 8.547 8.547 0 007.885 5.265h204.8a8.53 8.53 0 006.033-14.565zm-190.234-2.501l19.567-19.567a8.513 8.513 0 002.5-6.033V17.067h119.467v93.867c0 2.261.896 4.437 2.5 6.033l19.567 19.567H174.199zm286.601 51.2c-18.825 0-34.133 15.309-34.133 34.133v8.533h17.067v-8.533c0-9.412 7.654-17.067 17.067-17.067 9.412 0 17.067 7.654 17.067 17.067v93.867h17.067v-93.867c-.002-18.824-15.31-34.133-34.135-34.133z"/><path d="M460.8 273.067h25.6v17.067h-25.6zM247.467 256h-85.333a8.53 8.53 0 00-8.533 8.533v51.2a8.53 8.53 0 008.533 8.533h85.333a8.53 8.53 0 008.533-8.533v-51.2a8.53 8.53 0 00-8.533-8.533zm-8.534 51.2h-68.267v-34.133h68.267V307.2z"/><path d="M136.533 273.067h25.6v17.067h-25.6zm110.934 0h25.6v17.067h-25.6zM145.067 0H8.533A8.536 8.536 0 000 8.533v102.4a8.536 8.536 0 008.533 8.533h136.533a8.536 8.536 0 008.533-8.533V8.533C153.6 3.823 149.777 0 145.067 0zm-8.534 102.4H17.067V17.067h119.467V102.4z"/><path d="M102.4 51.2h17.067v34.133H102.4zM503.467 0H366.933a8.53 8.53 0 00-8.533 8.533v102.4a8.53 8.53 0 008.533 8.533h136.533a8.53 8.53 0 008.533-8.533V8.533A8.53 8.53 0 00503.467 0zm-8.534 102.4H375.467V17.067h119.467V102.4z"/><path d="M392.533 51.2H409.6v34.133h-17.067zM0 170.667h153.6v17.067H0z"/><path d="M17.067 153.6h17.067v76.8H17.067z"/><path d="M25.6 221.867c-14.114 0-25.6 11.486-25.6 25.6s11.486 25.6 25.6 25.6 25.6-11.486 25.6-25.6-11.486-25.6-25.6-25.6zm0 34.133c-4.702 0-8.533-3.831-8.533-8.533s3.831-8.533 8.533-8.533 8.533 3.831 8.533 8.533S30.302 256 25.6 256zm25.6-102.4h17.067v76.8H51.2z"/><path d="M59.733 221.867c-14.114 0-25.6 11.486-25.6 25.6s11.486 25.6 25.6 25.6 25.6-11.486 25.6-25.6-11.486-25.6-25.6-25.6zm0 34.133c-4.702 0-8.533-3.831-8.533-8.533s3.831-8.533 8.533-8.533 8.533 3.831 8.533 8.533c.001 4.702-3.831 8.533-8.533 8.533zm25.6-102.4H102.4v76.8H85.333z"/><path d="M93.867 221.867c-14.114 0-25.6 11.486-25.6 25.6s11.486 25.6 25.6 25.6 25.6-11.486 25.6-25.6-11.486-25.6-25.6-25.6zm0 34.133c-4.702 0-8.533-3.831-8.533-8.533s3.831-8.533 8.533-8.533 8.533 3.831 8.533 8.533S98.569 256 93.867 256z"/></symbol><symbol viewBox="0 0 480 480" id="icon--minibar" xmlns="http://www.w3.org/2000/svg"><path d="M472 432h-16V176a8 8 0 00-8-8h-48v-64h8a8 8 0 008-8V56a8 8 0 00-8-8h-80a8 8 0 00-8 8v40a8 8 0 008 8h8v64h-48a8 8 0 00-8 8v256h-23.936l15.872-127.008A8 8 0 00264 296h-8v-84.744c-.555-17.916-14.188-32.704-32-34.712V72a8 8 0 00-8-8h-40a8 8 0 00-8 8v104.544a38.743 38.743 0 00-16 5.984V176c-.024-19.001-13.389-35.373-32-39.2V8a8 8 0 00-8-8H64a8 8 0 00-8 8v128.8c-18.611 3.827-31.976 20.199-32 39.2v256H8a8 8 0 00-8 8v32a8 8 0 008 8h464a8 8 0 008-8v-32a8 8 0 00-8-8zM336 64h64v24h-64V64zm48 40v64h-32v-64h32zm-88 80h144v248H296V184zM184 80h24v16h-24V80zm0 32h24v64h-24v-64zm-32 99.256c.733-11.286 10.419-19.876 21.712-19.256h44.576c11.293-.62 20.979 7.97 21.712 19.256V296h-24v-41c-.026-21.528-17.472-38.974-39-39h-25v-4.744zM152 232h25c12.695.018 22.982 10.305 23 23v41h-48v-64zm102.936 80l-15 120h-87.872l-15-120h117.872zM72 16h32v16H72V16zm0 32h32v88H72V48zM40 192h48v208H40V192zm0 224h56a8 8 0 008-8V184a8 8 0 00-8-8H40c0-13.255 10.745-24 24-24h48c13.255 0 24 10.745 24 24v120h-8a8 8 0 00-7.936 8.992L135.936 432H40v-16zm424 48H16v-16h448v16z"/><path d="M232.324 376.112a8 8 0 00-10.06 5.832l-2.52 9.496c-4.144 12.623-17.736 19.496-30.359 15.352a24.057 24.057 0 01-15.753-16.704l-12.288-63.6a8 8 0 00-15.704 3.024l12.28 63.608c3.931 18.272 20.24 31.21 38.928 30.88 17.753.295 33.488-11.38 38.352-28.456l2.52-9.488a8 8 0 00-5.396-9.944zM424 208H312a8 8 0 00-8 8v136a8 8 0 008 8h112a8 8 0 008-8V216a8 8 0 00-8-8zm-8 136h-96V224h96v120z"/></symbol><symbol viewBox="0 0 512 512" id="icon--shield" xmlns="http://www.w3.org/2000/svg"><path d="M256 40.01a9.969 9.969 0 00-9.99 9.99 9.961 9.961 0 008.99 9.938A9.97 9.97 0 00265.99 50c0-5.538-4.46-9.99-9.99-9.99z"/><path d="M456 60c-27.57 0-50-22.43-50-50 0-5.522-4.478-10-10-10H116c-5.522 0-10 4.478-10 10 0 27.57-22.43 50-50 50-5.522 0-10 4.478-10 10v163.19c0 127.177 82.895 241.135 207.128 278.389a9.997 9.997 0 005.745-.001C380.415 475.119 466 363.149 466 233.19V70c0-5.522-4.478-10-10-10zm-10 173.19c0 119.448-76.221 222.892-190 258.353C143.128 456.365 66 351.984 66 233.19V79.288C96.611 74.89 120.89 50.611 125.288 20h261.424C391.11 50.611 415.389 74.89 446 79.288V233.19z"/><path d="M420.012 92.49c-20.854-9.133-37.369-25.648-46.502-46.502A10 10 0 00364.35 40h-68.37c-5.522 0-10 4.478-10 10s4.478 10 10 10h62.047A109.933 109.933 0 00406 107.973V233.19c0 97.863-58.749 182.303-150 216.104-91.251-33.802-150-118.241-150-216.104V107.973A109.938 109.938 0 00153.973 60h62.047c5.522 0 10-4.478 10-10s-4.478-10-10-10h-68.37a10.002 10.002 0 00-9.16 5.988c-9.133 20.854-25.648 37.369-46.502 46.502A10.003 10.003 0 0086 101.65v131.54c0 107.213 66.311 200.653 166.664 236.166a9.993 9.993 0 006.672 0C359.605 433.873 426 340.49 426 233.19V101.65c0-3.972-2.351-7.566-5.988-9.16z"/><path d="M256 146c-49.626 0-90 40.374-90 90s40.374 90 90 90 90-40.374 90-90-40.374-90-90-90zm0 160c-38.598 0-70-31.402-70-70s31.402-70 70-70 70 31.402 70 70-31.402 70-70 70z"/><path d="M303.071 208.928c-3.906-3.904-10.236-3.904-14.143 0L246 251.857l-12.929-12.928c-3.906-3.904-10.236-3.904-14.143 0-3.905 3.905-3.905 10.237 0 14.143l20 20C240.882 275.023 243.44 276 246 276s5.118-.977 7.071-2.929l50-50c3.905-3.905 3.905-10.237 0-14.143z"/></symbol><symbol viewBox="-24 0 472 472.094" id="icon--shower" xmlns="http://www.w3.org/2000/svg"><path d="M416.043 208a8 8 0 008-8V8a8 8 0 00-8-8c-34.617 0-88 27.488-88 64v8h-168c-22.082.027-39.973 17.918-40 40v38.121a47.928 47.928 0 00-15.313 27.137c-48.394 7.258-85.18 47.277-88.351 96.11C5.242 277.097-1.54 288.354.363 299.944c1.907 11.59 11.938 20.086 23.68 20.055h240c11.742.031 21.773-8.465 23.68-20.055 1.902-11.59-4.88-22.847-16.016-26.578-3.172-48.832-39.957-88.851-88.352-96.11a47.928 47.928 0 00-15.312-27.136V120h160v24c0 36.512 53.383 64 88 64zm-72-144c0-23.2 36.895-43.793 64-47.434v174.868c-27.105-3.641-64-24.235-64-47.434zM166.602 176h-45.118c2.704-8.121 8.797-16 14.559-16h16c5.785 0 11.855 7.879 14.559 16zm97.441 128h-240a8 8 0 010-16h240a8 8 0 010 16zm-8.36-32H32.404c4.19-45.29 42.16-79.945 87.64-80h48c45.48.055 83.45 34.71 87.64 80zm-95.64-168a8 8 0 00-8 8v32h-16v-32c0-13.254 10.746-24 24-24h168v16zm-120 240a8 8 0 00-16 0v8a8 8 0 0016 0zm32 0a8 8 0 00-16 0v48a8 8 0 0016 0zm32 0a8 8 0 00-16 0v8a8 8 0 0016 0zm32 0a8 8 0 00-16 0v48a8 8 0 0016 0zm32 0a8 8 0 00-16 0v8a8 8 0 0016 0zm32 0a8 8 0 00-16 0v48a8 8 0 0016 0zm32 0a8 8 0 00-16 0v8a8 8 0 0016 0zm-168 72a8 8 0 00-8 8v24a8 8 0 0016 0v-24a8 8 0 00-8-8zm64 0a8 8 0 00-8 8v24a8 8 0 0016 0v-24a8 8 0 00-8-8zm64 0a8 8 0 00-8 8v24a8 8 0 0016 0v-24a8 8 0 00-8-8zm64 0a8 8 0 00-8 8v24a8 8 0 0016 0v-24a8 8 0 00-8-8zm8-72a8 8 0 00-16 0v48a8 8 0 0016 0zm-224 40a8 8 0 00-16 0v48a8 8 0 0016 0zm64 0a8 8 0 00-16 0v48a8 8 0 0016 0zm64 0a8 8 0 00-16 0v48a8 8 0 0016 0zm64 0a8 8 0 00-16 0v48a8 8 0 0016 0zM35.082 456.55a8.288 8.288 0 00-4.64-.39c-.489.098-.97.227-1.438.39-.496.243-.98.509-1.45.802-.413.296-.812.617-1.19.96a9.224 9.224 0 00-1.68 2.641 6.723 6.723 0 00-.641 3.047 8.002 8.002 0 004.906 7.473c3 1.257 6.469.57 8.766-1.739s2.965-5.777 1.687-8.773a8.262 8.262 0 00-1.68-2.64 12.148 12.148 0 00-2.64-1.77zm55.281 1.77a8.262 8.262 0 00-1.68 2.64 7.916 7.916 0 001.68 8.72 8.262 8.262 0 002.64 1.68 7.91 7.91 0 008.72-1.68 7.91 7.91 0 001.68-8.72 9.224 9.224 0 00-1.68-2.64 8.374 8.374 0 00-11.36 0zm74.078-.96a8.62 8.62 0 00-1.359-.801 9.318 9.318 0 00-1.527-.391 8.047 8.047 0 00-4.551.39 12.055 12.055 0 00-2.64 1.77 8.262 8.262 0 00-1.68 2.64 7.916 7.916 0 001.68 8.72 9.224 9.224 0 002.64 1.68 7.91 7.91 0 008.719-1.68 7.91 7.91 0 001.68-8.72 9.224 9.224 0 00-1.68-2.64 8.173 8.173 0 00-1.282-.969zm53.922.96a8.262 8.262 0 00-1.68 2.64 6.69 6.69 0 00-.64 3.04 7.929 7.929 0 002.32 5.68 9.224 9.224 0 002.64 1.68 7.916 7.916 0 0011.04-7.36 6.794 6.794 0 00-.64-3.04 9.224 9.224 0 00-1.68-2.64 8.374 8.374 0 00-11.36 0zm0 0"/></symbol><symbol viewBox="0 0 383.563 383.563" id="icon--television" xmlns="http://www.w3.org/2000/svg"><path d="M359.399 62.563H239.697a48.133 48.133 0 00-5.852-16.592l99.926-31.312a7.5 7.5 0 004.915-9.399 7.496 7.496 0 00-9.399-4.914L223.562 33.475c-8.519-7.41-19.632-11.912-31.783-11.912s-23.263 4.502-31.782 11.912L54.271.346a7.499 7.499 0 00-9.399 4.914 7.498 7.498 0 004.914 9.399l99.926 31.312a48.133 48.133 0 00-5.852 16.592H24.164c-12.445 0-22.57 10.125-22.57 22.569v253.861c0 12.445 10.125 22.57 22.57 22.57h3.617v14.5a7.5 7.5 0 0015 0v-14.5h298v14.5c0 4.142 3.357 7.5 7.5 7.5s7.5-3.358 7.5-7.5v-14.5h3.617c12.444 0 22.569-10.125 22.569-22.57V85.132c.002-12.444-10.123-22.569-22.568-22.569zm-167.62-26c15.893 0 29.227 11.128 32.644 26h-65.287c3.416-14.871 16.749-26 32.643-26zm175.19 302.43c0 4.174-3.396 7.57-7.569 7.57H24.164c-4.174 0-7.57-3.396-7.57-7.57V85.132c0-4.174 3.396-7.569 7.57-7.569h335.235c4.174 0 7.569 3.396 7.569 7.569v253.861z"/><path d="M346.972 103.687a7.5 7.5 0 00-6.764-6.208c-98.491-8.285-198.365-8.285-296.854 0a7.5 7.5 0 00-6.764 6.208c-11.912 69.591-11.912 140.162 0 209.752a7.5 7.5 0 006.764 6.208 1771.726 1771.726 0 00148.427 6.214c49.591 0 99.182-2.071 148.427-6.214a7.501 7.501 0 006.764-6.208c11.912-69.591 11.912-140.161 0-209.752zM333.14 305.179c-93.832 7.576-188.886 7.576-282.716 0-10.354-64.139-10.354-129.093 0-193.232 93.831-7.576 188.884-7.576 282.716 0 10.353 64.139 10.353 129.093 0 193.232z"/><path d="M321.094 168.689a7.5 7.5 0 00-7.073 7.904 580.301 580.301 0 01-1.054 79.266 7.5 7.5 0 007.482 8.113 7.501 7.501 0 007.467-6.887 595.165 595.165 0 001.081-81.323 7.493 7.493 0 00-7.903-7.073zm-1.422-9.047a7.5 7.5 0 007.473-8.223 599.088 599.088 0 00-2.698-23.165c-.56-4.105-4.355-6.977-8.444-6.418a7.5 7.5 0 00-6.419 8.444 586.476 586.476 0 012.632 22.583 7.5 7.5 0 007.456 6.779zm37.963 166.19c-5.754-3.788-13.351 1.804-11.339 8.411.913 2.997 3.672 5.151 6.801 5.309 3.269.165 6.321-1.891 7.431-4.962 1.147-3.176-.069-6.899-2.893-8.758z"/></symbol><symbol viewBox="0 0 512 512" id="icon--towel" xmlns="http://www.w3.org/2000/svg"><path d="M437 181H271v-32.507c34.19-6.969 60-37.274 60-73.493 0-41.355-33.645-75-75-75s-75 33.645-75 75c0 8.284 6.716 15 15 15s15-6.716 15-15c0-24.813 20.187-45 45-45s45 20.187 45 45-20.187 45-45 45c-8.284 0-15 6.716-15 15v46H75c-41.355 0-75 33.645-75 75s33.645 75 75 75h16v75c0 8.284 6.716 15 15 15h45v76c0 8.284 6.716 15 15 15h240c8.284 0 15-6.716 15-15V331h16c41.355 0 75-33.645 75-75s-33.645-75-75-75zM121 331h30v60h-30v-60zm15-60c8.271 0 15 6.729 15 15v15h-30v-15c0-8.271 6.729-15 15-15zm255 150h-60v-45c0-8.284-6.716-15-15-15s-15 6.716-15 15v45h-30v-45c0-8.284-6.716-15-15-15s-15 6.716-15 15v45h-60V286a44.79 44.79 0 00-2.58-15H376c8.271 0 15 6.729 15 15v135zm-210 61v-31h210v31H181zm256-181h-16v-15c0-24.813-20.187-45-45-45H136c-24.813 0-45 20.187-45 45v15H75c-24.813 0-45-20.187-45-45s20.187-45 45-45h362c24.813 0 45 20.187 45 45s-20.187 45-45 45z"/></symbol><symbol viewBox="0 0 611.989 611.988" id="icon--wifi" xmlns="http://www.w3.org/2000/svg"><path d="M305.994 417.769c-30.85 0-55.887 25.037-55.887 55.887s25.038 55.887 55.887 55.887 55.887-25.037 55.887-55.887-25.038-55.887-55.887-55.887zm299.442-195.4C530.697 133.434 421.549 82.446 305.994 82.446S81.309 133.434 6.551 222.369c-9.93 11.811-8.402 29.434 3.428 39.363 5.234 4.396 11.587 6.558 17.939 6.558 7.973 0 15.891-3.391 21.423-9.967 64.084-76.248 157.639-119.989 256.652-119.989 99.013 0 192.568 43.741 256.651 119.971 5.533 6.576 13.45 9.967 21.424 9.967 6.353 0 12.724-2.143 17.958-6.558 11.811-9.912 13.34-27.553 3.41-39.345zM305.994 194.22c-82.545 0-160.489 36.419-213.879 99.926-9.929 11.811-8.402 29.434 3.428 39.363a27.833 27.833 0 0017.958 6.558c7.973 0 15.891-3.391 21.405-9.967 42.716-50.838 105.086-79.993 171.089-79.993s128.372 29.155 171.107 79.993c5.533 6.595 13.45 9.967 21.404 9.967 6.353 0 12.724-2.143 17.959-6.558 11.829-9.929 13.356-27.57 3.428-39.363-53.41-63.506-131.354-99.926-213.899-99.926zm0 111.774c-49.553 0-96.331 21.852-128.335 59.948-9.93 11.811-8.402 29.434 3.428 39.363a27.832 27.832 0 0017.958 6.557c7.973 0 15.891-3.39 21.405-9.966 21.368-25.429 52.552-40.016 85.544-40.016s64.177 14.587 85.544 40.016c5.533 6.595 13.45 9.966 21.405 9.966 6.353 0 12.724-2.142 17.958-6.557 11.83-9.93 13.357-27.553 3.428-39.363-32.005-38.096-78.783-59.948-128.335-59.948z"/></symbol><symbol viewBox="0 0 611.989 611.988" id="icon--wifi-connection-signal-symbol" xmlns="http://www.w3.org/2000/svg"><path d="M305.994 417.769c-30.85 0-55.887 25.037-55.887 55.887s25.038 55.887 55.887 55.887 55.887-25.037 55.887-55.887-25.038-55.887-55.887-55.887zm299.442-195.4C530.697 133.434 421.549 82.446 305.994 82.446S81.309 133.434 6.551 222.369c-9.93 11.811-8.402 29.434 3.428 39.363 5.234 4.396 11.587 6.558 17.939 6.558 7.973 0 15.891-3.391 21.423-9.967 64.084-76.248 157.639-119.989 256.652-119.989 99.013 0 192.568 43.741 256.651 119.971 5.533 6.576 13.45 9.967 21.424 9.967 6.353 0 12.724-2.143 17.958-6.558 11.811-9.912 13.34-27.553 3.41-39.345zM305.994 194.22c-82.545 0-160.489 36.419-213.879 99.926-9.929 11.811-8.402 29.434 3.428 39.363a27.833 27.833 0 0017.958 6.558c7.973 0 15.891-3.391 21.405-9.967 42.716-50.838 105.086-79.993 171.089-79.993s128.372 29.155 171.107 79.993c5.533 6.595 13.45 9.967 21.404 9.967 6.353 0 12.724-2.143 17.959-6.558 11.829-9.929 13.356-27.57 3.428-39.363-53.41-63.506-131.354-99.926-213.899-99.926zm0 111.774c-49.553 0-96.331 21.852-128.335 59.948-9.93 11.811-8.402 29.434 3.428 39.363a27.832 27.832 0 0017.958 6.557c7.973 0 15.891-3.39 21.405-9.966 21.368-25.429 52.552-40.016 85.544-40.016s64.177 14.587 85.544 40.016c5.533 6.595 13.45 9.966 21.405 9.966 6.353 0 12.724-2.142 17.958-6.557 11.83-9.93 13.357-27.553 3.428-39.363-32.005-38.096-78.783-59.948-128.335-59.948z"/></symbol></svg>