<svg xmlns="http://www.w3.org/2000/svg" viewBox="0 0 512 512"><path d="M366.933 307.2H145.067a8.53 8.53 0 00-8.533 8.533v187.733a8.53 8.53 0 008.533 8.533h221.867a8.525 8.525 0 008.533-8.533V315.733a8.526 8.526 0 00-8.534-8.533zM358.4 494.933H153.6V324.267h204.8v170.666z"/><path d="M366.933 307.2H145.067a8.53 8.53 0 00-8.533 8.533v187.733a8.53 8.53 0 008.533 8.533h221.867a8.525 8.525 0 008.533-8.533V315.733a8.526 8.526 0 00-8.534-8.533zM358.4 494.933H153.6V324.267h204.8v170.666z"/><path d="M145.067 307.2H8.533A8.53 8.53 0 000 315.733v187.733A8.53 8.53 0 008.533 512h136.533a8.53 8.53 0 008.533-8.533V315.733a8.53 8.53 0 00-8.532-8.533zm-8.534 187.733H17.067V324.267h119.467v170.666zM503.467 307.2H366.933a8.525 8.525 0 00-8.533 8.533v187.733a8.525 8.525 0 008.533 8.533h136.533a8.525 8.525 0 008.533-8.533V315.733a8.523 8.523 0 00-8.532-8.533zm-8.534 187.733H375.467V324.267h119.467v170.666zM332.8 375.467H179.2a8.53 8.53 0 00-8.533 8.533v85.333a8.53 8.53 0 008.533 8.533h153.6a8.525 8.525 0 008.533-8.533V384a8.525 8.525 0 00-8.533-8.533zm-8.533 85.333H187.733v-68.267h136.533V460.8zm-59.734-119.467H281.6V358.4h-17.067zm-34.133 0h17.067V358.4H230.4zm-34.133 0h17.067V358.4h-17.067zm102.4 0h17.067V358.4h-17.067z"/><path d="M8.533 375.467h136.533v17.067H8.533zm51.2-34.134h34.133V358.4H59.733zm0 68.267h34.133v17.067H59.733zm307.2-34.133h136.533v17.067H366.933z"/><path d="M426.667 384h17.067v119.467h-17.067zm-8.534-42.667h34.133V358.4h-34.133zm-25.6 85.334H409.6v25.6h-17.067zm68.267 0h17.067v25.6H460.8zm-96.367-287.633L332.8 107.401V8.533A8.53 8.53 0 00324.267 0H187.733a8.536 8.536 0 00-8.533 8.533V107.4l-31.633 31.633a8.532 8.532 0 00-1.852 9.301 8.547 8.547 0 007.885 5.265h204.8a8.53 8.53 0 006.033-14.565zm-190.234-2.501l19.567-19.567a8.513 8.513 0 002.5-6.033V17.067h119.467v93.867c0 2.261.896 4.437 2.5 6.033l19.567 19.567H174.199zm286.601 51.2c-18.825 0-34.133 15.309-34.133 34.133v8.533h17.067v-8.533c0-9.412 7.654-17.067 17.067-17.067 9.412 0 17.067 7.654 17.067 17.067v93.867h17.067v-93.867c-.002-18.824-15.31-34.133-34.135-34.133z"/><path d="M460.8 273.067h25.6v17.067h-25.6zM247.467 256h-85.333a8.53 8.53 0 00-8.533 8.533v51.2a8.53 8.53 0 008.533 8.533h85.333a8.53 8.53 0 008.533-8.533v-51.2a8.53 8.53 0 00-8.533-8.533zm-8.534 51.2h-68.267v-34.133h68.267V307.2z"/><path d="M136.533 273.067h25.6v17.067h-25.6zm110.934 0h25.6v17.067h-25.6zM145.067 0H8.533A8.536 8.536 0 000 8.533v102.4a8.536 8.536 0 008.533 8.533h136.533a8.536 8.536 0 008.533-8.533V8.533C153.6 3.823 149.777 0 145.067 0zm-8.534 102.4H17.067V17.067h119.467V102.4z"/><path d="M102.4 51.2h17.067v34.133H102.4zM503.467 0H366.933a8.53 8.53 0 00-8.533 8.533v102.4a8.53 8.53 0 008.533 8.533h136.533a8.53 8.53 0 008.533-8.533V8.533A8.53 8.53 0 00503.467 0zm-8.534 102.4H375.467V17.067h119.467V102.4z"/><path d="M392.533 51.2H409.6v34.133h-17.067zM0 170.667h153.6v17.067H0z"/><path d="M17.067 153.6h17.067v76.8H17.067z"/><path d="M25.6 221.867c-14.114 0-25.6 11.486-25.6 25.6s11.486 25.6 25.6 25.6 25.6-11.486 25.6-25.6-11.486-25.6-25.6-25.6zm0 34.133c-4.702 0-8.533-3.831-8.533-8.533s3.831-8.533 8.533-8.533 8.533 3.831 8.533 8.533S30.302 256 25.6 256zm25.6-102.4h17.067v76.8H51.2z"/><path d="M59.733 221.867c-14.114 0-25.6 11.486-25.6 25.6s11.486 25.6 25.6 25.6 25.6-11.486 25.6-25.6-11.486-25.6-25.6-25.6zm0 34.133c-4.702 0-8.533-3.831-8.533-8.533s3.831-8.533 8.533-8.533 8.533 3.831 8.533 8.533c.001 4.702-3.831 8.533-8.533 8.533zm25.6-102.4H102.4v76.8H85.333z"/><path d="M93.867 221.867c-14.114 0-25.6 11.486-25.6 25.6s11.486 25.6 25.6 25.6 25.6-11.486 25.6-25.6-11.486-25.6-25.6-25.6zm0 34.133c-4.702 0-8.533-3.831-8.533-8.533s3.831-8.533 8.533-8.533 8.533 3.831 8.533 8.533S98.569 256 93.867 256z"/></svg>