<svg xmlns="http://www.w3.org/2000/svg" viewBox="0 0 480 480"><path d="M472 432h-16V176a8 8 0 00-8-8h-48v-64h8a8 8 0 008-8V56a8 8 0 00-8-8h-80a8 8 0 00-8 8v40a8 8 0 008 8h8v64h-48a8 8 0 00-8 8v256h-23.936l15.872-127.008A8 8 0 00264 296h-8v-84.744c-.555-17.916-14.188-32.704-32-34.712V72a8 8 0 00-8-8h-40a8 8 0 00-8 8v104.544a38.743 38.743 0 00-16 5.984V176c-.024-19.001-13.389-35.373-32-39.2V8a8 8 0 00-8-8H64a8 8 0 00-8 8v128.8c-18.611 3.827-31.976 20.199-32 39.2v256H8a8 8 0 00-8 8v32a8 8 0 008 8h464a8 8 0 008-8v-32a8 8 0 00-8-8zM336 64h64v24h-64V64zm48 40v64h-32v-64h32zm-88 80h144v248H296V184zM184 80h24v16h-24V80zm0 32h24v64h-24v-64zm-32 99.256c.733-11.286 10.419-19.876 21.712-19.256h44.576c11.293-.62 20.979 7.97 21.712 19.256V296h-24v-41c-.026-21.528-17.472-38.974-39-39h-25v-4.744zM152 232h25c12.695.018 22.982 10.305 23 23v41h-48v-64zm102.936 80l-15 120h-87.872l-15-120h117.872zM72 16h32v16H72V16zm0 32h32v88H72V48zM40 192h48v208H40V192zm0 224h56a8 8 0 008-8V184a8 8 0 00-8-8H40c0-13.255 10.745-24 24-24h48c13.255 0 24 10.745 24 24v120h-8a8 8 0 00-7.936 8.992L135.936 432H40v-16zm424 48H16v-16h448v16z"/><path d="M232.324 376.112a8 8 0 00-10.06 5.832l-2.52 9.496c-4.144 12.623-17.736 19.496-30.359 15.352a24.057 24.057 0 01-15.753-16.704l-12.288-63.6a8 8 0 00-15.704 3.024l12.28 63.608c3.931 18.272 20.24 31.21 38.928 30.88 17.753.295 33.488-11.38 38.352-28.456l2.52-9.488a8 8 0 00-5.396-9.944zM424 208H312a8 8 0 00-8 8v136a8 8 0 008 8h112a8 8 0 008-8V216a8 8 0 00-8-8zm-8 136h-96V224h96v120z"/></svg>