<svg xmlns="http://www.w3.org/2000/svg" width="512" height="512"><path d="M437 181H271v-32.507c34.19-6.969 60-37.274 60-73.493 0-41.355-33.645-75-75-75s-75 33.645-75 75c0 8.284 6.716 15 15 15s15-6.716 15-15c0-24.813 20.187-45 45-45s45 20.187 45 45-20.187 45-45 45c-8.284 0-15 6.716-15 15v46H75c-41.355 0-75 33.645-75 75s33.645 75 75 75h16v75c0 8.284 6.716 15 15 15h45v76c0 8.284 6.716 15 15 15h240c8.284 0 15-6.716 15-15V331h16c41.355 0 75-33.645 75-75s-33.645-75-75-75zM121 331h30v60h-30v-60zm15-60c8.271 0 15 6.729 15 15v15h-30v-15c0-8.271 6.729-15 15-15zm255 150h-60v-45c0-8.284-6.716-15-15-15s-15 6.716-15 15v45h-30v-45c0-8.284-6.716-15-15-15s-15 6.716-15 15v45h-60V286a44.79 44.79 0 00-2.58-15H376c8.271 0 15 6.729 15 15v135zm-210 61v-31h210v31H181zm256-181h-16v-15c0-24.813-20.187-45-45-45H136c-24.813 0-45 20.187-45 45v15H75c-24.813 0-45-20.187-45-45s20.187-45 45-45h362c24.813 0 45 20.187 45 45s-20.187 45-45 45z"/></svg>